<svg version="1.1" id="Layer_1" xmlns="http://www.w3.org/2000/svg" xmlns:xlink="http://www.w3.org/1999/xlink" x="0px" y="0px"
	 width="100%" viewBox="0 0 1024 752" enable-background="new 0 0 1024 752" xml:space="preserve">
<path fill="#000000" opacity="1.000000" stroke="none"
	d="
M415.000000,691.226868
	C389.002136,691.218323 363.503998,691.276184 338.006439,691.186035
	C307.282135,691.077393 284.061279,667.909241 283.829163,637.018982
	C283.657593,614.188782 283.660065,591.355347 283.861725,568.525818
	C283.903839,563.757507 282.515442,562.135559 277.658112,562.278748
	C266.668427,562.602600 255.662643,562.442017 244.663910,562.384094
	C221.830429,562.263855 205.332108,546.506165 205.092560,523.603027
	C204.724792,488.443115 204.690292,453.273468 205.073944,418.114075
	C205.337738,393.938904 222.045181,378.077667 246.199066,377.983185
	C256.864685,377.941498 267.532318,377.849701 278.195435,378.014832
	C282.118195,378.075531 283.719574,376.979065 283.882568,372.697296
	C284.956940,344.473511 303.321106,324.415192 331.553802,320.603821
	C336.217194,319.974243 337.722900,317.872620 337.687073,313.445862
	C337.554779,297.114960 337.582825,280.782349 337.626251,264.450592
	C337.784027,205.126846 362.310608,158.000336 409.516022,122.668556
	C435.489075,103.228546 465.114532,92.928673 497.471588,90.641685
	C550.553406,86.889885 596.342346,103.644829 634.066711,140.977951
	C660.770264,167.404572 676.717773,199.726425 682.417419,237.022263
	C685.965210,260.237701 683.765442,283.576599 684.326721,306.853851
	C684.617310,318.899475 684.386841,318.905029 695.847778,321.361084
	C721.070374,326.766235 738.078186,347.348450 738.106567,373.086395
	C738.203735,461.078949 738.229492,549.071716 738.139832,637.064270
	C738.108398,667.908813 714.736450,691.177368 683.974915,691.197815
	C594.483276,691.257263 504.991638,691.224426 415.000000,691.226868
M611.266357,219.200363
	C608.816345,213.519211 605.781799,208.151520 602.290466,203.061005
	C580.858398,171.811661 551.175964,154.841400 513.342590,153.499374
	C484.400970,152.472733 459.036255,162.688629 437.745880,182.196198
	C416.232819,201.907761 403.431488,226.272110 402.143768,255.751526
	C401.315948,274.702209 401.585175,293.701447 401.402222,312.679291
	C401.332489,319.915192 401.449585,320.016113 408.547424,320.015991
	C476.541412,320.014679 544.535400,320.004852 612.529358,319.987640
	C620.007507,319.985748 620.487793,319.645416 620.541687,312.129974
	C620.647888,297.298828 620.679138,282.464996 620.517212,267.634705
	C620.338013,251.218323 618.450500,235.079178 611.266357,219.200363
M312.500000,391.904236
	C290.338654,391.903137 268.177216,391.868652 246.015945,391.911743
	C228.954788,391.944916 218.423264,402.553925 218.399277,419.773407
	C218.352127,453.598724 218.568802,487.425720 218.291046,521.248840
	C218.150146,538.406433 231.811874,549.187683 245.746841,549.007446
	C290.895325,548.423462 336.062653,548.354980 381.208618,549.029419
	C397.036530,549.265808 409.291809,536.839539 408.995636,521.293274
	C408.348267,487.313782 408.837555,453.313202 408.798584,419.321320
	C408.778839,402.120514 398.590454,391.949219 381.483978,391.929138
	C358.822693,391.902496 336.161316,391.911285 312.500000,391.904236
M463.957275,503.543427
	C470.421875,511.484497 478.546356,517.199341 488.102173,520.667175
	C492.139374,522.132263 492.953491,524.060120 491.960663,528.112549
	C486.462555,550.554871 481.217957,573.059265 475.889587,595.543152
	C473.695587,604.801025 477.494537,609.681946 487.040497,609.716614
	C501.529480,609.769287 516.018738,609.750732 530.507874,609.744934
	C541.543701,609.740479 544.860962,606.471680 544.871155,595.517334
	C544.894043,570.869141 544.904907,546.220947 544.866272,521.572876
	C544.861084,518.292542 545.366333,515.734741 548.311096,513.373840
	C564.872498,500.096222 573.757568,483.081848 573.137268,461.418762
	C572.012390,422.138672 534.848145,393.427765 496.676453,402.928375
	C451.483490,414.176483 433.582550,467.563110 463.957275,503.543427
z"/>
<text x="313" y="470" font-family="'JetBrains Mono', 'Fira Code', 'Source Code Pro', 'SF Mono', monospace" font-size="92" font-weight="bold" fill="#000000" text-anchor="middle" dominant-baseline="central" transform="scale(1, 1.08)" transform-origin="313 470">0x3</text>
</svg>
